# xmcd CD database file
#
# Track frame offsets:
#	195
#	19519
#	38682
#	68406
#	81807
#	98114
#	115926
#	143182
#	161000
#	182492
#	201699
#
# Disc length: 2928 seconds
#
# Revision: 0
# Processed by: cddbd v1.5.1PL0 Copyright (c) Steve Scherf et al.
# Submitted via: CDex 1.40Beta5
#
DISCID=8b0b6e0b
DTITLE=Kevin Doherty - Strange Weather
DYEAR=1999
DGENRE=Blues
TTITLE0=Need For You
TTITLE1=Is This The Summer
TTITLE2=Strange Weather
TTITLE3=Mary J
TTITLE4=Embrace Me
TTITLE5=Feel Skin
TTITLE6=All Aboard
TTITLE7=Rains Down Trouble
TTITLE8=I'm On My Way
TTITLE9=Paradise
TTITLE10=Not Before Time
EXTD=YEAR: 1999 ID3G:   0
EXTT0=
EXTT1=
EXTT2=
EXTT3=
EXTT4=
EXTT5=
EXTT6=
EXTT7=
EXTT8=
EXTT9=
EXTT10=
PLAYORDER=
